<svg xmlns="http://www.w3.org/2000/svg" viewBox="0 0 76.34 76.35"><defs><style>.cls-1{fill:#010101;}</style></defs><g id="Layer_2" data-name="Layer 2"><g id="Layer_1-2" data-name="Layer 1"><path class="cls-1" d="M38.17,0A38.175,38.175,0,1,0,76.34,38.18,38.218,38.218,0,0,0,38.17,0Zm0,73.35a34.851,34.851,0,0,1-15.42-3.57V47.63c1.38,2.44,3.06,3.49,5.59,3.49,5.41,0,8.96-5.5,8.96-13.83,0-7.56-3.4-12.63-8.48-12.63-2.77,0-4.45,1.14-6.26,4.4V25.37H19.3V67.84A35.166,35.166,0,0,1,53.59,6.56V29.15c-1.62-3.2-3.44-4.49-6.27-4.49-5.07,0-8.47,5.07-8.47,12.63,0,8.37,3.54,13.83,9,13.83,2.78,0,4.45-1.2,5.93-4.31V50.4h3.26V8.51A35.164,35.164,0,0,1,38.17,73.35ZM22.6,38.68c0-6.8,1.92-10.29,5.65-10.29,3.54,0,5.45,3.16,5.45,9.04,0,6.32-2.01,10-5.5,10C24.76,47.43,22.6,44.13,22.6,38.68Zm30.95-.15c0,5.7-2.21,8.9-5.65,8.9s-5.46-3.63-5.46-9.9c0-6.13,1.87-9.14,5.6-9.14C51.58,28.39,53.55,31.98,53.55,38.53Z"/></g></g></svg>